<?xml version="1.0" standalone="no"?>
<!DOCTYPE svg PUBLIC "-//W3C//DTD SVG 20010904//EN"
 "http://www.w3.org/TR/2001/REC-SVG-20010904/DTD/svg10.dtd">
<svg version="1.0" xmlns="http://www.w3.org/2000/svg"
 width="300.000000pt" height="228.000000pt" viewBox="0 0 300.000000 228.000000"
 preserveAspectRatio="xMidYMid meet">
<metadata>
Created by potrace 1.10, written by Peter Selinger 2001-2011
</metadata>
<g transform="translate(0.000000,228.000000) scale(0.100000,-0.100000)"
fill="#000000" stroke="none">
<path d="M1427 2192 c-16 -9 -45 -42 -66 -72 -24 -35 -52 -62 -78 -75 -38 -19
-41 -23 -45 -70 -5 -65 10 -151 33 -189 17 -27 17 -30 1 -42 -13 -10 -14 -15
-3 -27 7 -9 21 -15 33 -14 20 1 20 1 -1 18 -11 9 -17 20 -13 24 4 3 8 11 8 16
1 5 2 15 3 22 1 7 6 4 12 -6 6 -10 9 -27 6 -37 -3 -10 1 -21 9 -24 13 -5 18 7
26 59 2 10 -7 29 -19 42 -13 12 -23 31 -23 43 0 20 1 20 27 -4 l27 -26 12 22
c11 21 12 21 17 2 3 -13 5 -10 7 11 1 26 3 27 10 10 8 -19 9 -19 9 4 1 17 5
21 17 17 9 -3 12 -2 9 5 -5 7 6 9 31 7 39 -3 39 -3 38 -45 0 -24 3 -43 8 -43
4 0 8 -22 8 -49 0 -28 4 -52 9 -56 6 -3 7 9 4 30 -4 24 -2 35 6 35 7 0 9 -5 5
-12 -4 -7 -3 -8 4 -4 6 4 14 23 18 44 6 34 18 51 37 52 15 0 6 -41 -14 -61
-26 -26 -35 -145 -11 -154 29 -11 33 -5 26 41 -8 58 7 53 35 -11 11 -25 25
-45 30 -45 6 0 11 -7 11 -15 0 -8 -3 -14 -7 -13 -5 1 -18 -2 -31 -6 -14 -5
-28 -3 -37 4 -13 10 -15 8 -15 -13 0 -18 4 -25 13 -21 8 3 20 -2 27 -11 19
-23 28 -18 22 11 -4 23 -2 25 15 20 13 -4 25 0 34 11 12 15 12 16 -1 9 -13 -7
-13 -6 0 6 32 28 39 53 28 102 -10 47 2 83 23 70 5 -3 9 14 9 37 0 36 -2 41
-20 36 -15 -4 -20 0 -20 15 0 15 5 19 20 15 11 -3 18 -1 14 4 -9 14 -34 10
-41 -7 -3 -8 0 -26 8 -40 10 -20 10 -31 1 -58 -7 -18 -12 -53 -12 -78 0 -94
-19 -101 -57 -22 -22 46 -24 60 -15 75 10 15 9 19 -3 19 -16 0 -18 23 -6 55 4
11 4 38 -2 60 -5 22 -10 46 -10 53 0 7 -17 28 -38 47 -33 30 -38 39 -32 65 6
33 21 35 37 4 6 -10 18 -31 29 -47 10 -15 16 -31 13 -36 -3 -4 5 -6 18 -4 21
4 24 0 30 -47 5 -34 3 -57 -5 -66 -6 -8 -8 -14 -3 -14 4 0 -3 -11 -15 -24 -18
-19 -19 -24 -7 -29 24 -10 46 52 46 132 0 62 -3 74 -22 89 -44 35 -91 88 -104
120 -16 35 -66 72 -99 72 -11 0 -33 -8 -48 -18z m81 -43 c25 -9 30 -15 27 -37
-2 -15 -4 -38 -5 -52 0 -22 -2 -23 -11 -7 -12 21 -44 23 -35 2 4 -10 -1 -15
-16 -15 -17 0 -18 2 -8 15 11 13 9 15 -13 15 -23 0 -36 14 -43 47 -1 6 12 18
29 27 38 19 37 19 75 5z m-108 -120 c0 -5 -6 -9 -13 -9 -7 0 -28 -15 -45 -33
-28 -28 -33 -43 -38 -98 -7 -78 -24 -104 -24 -36 0 28 -5 47 -11 47 -6 0 -9 9
-6 20 3 11 1 18 -4 14 -5 -3 -9 11 -9 30 0 40 13 45 42 19 18 -16 18 -16 12 0
-3 9 -10 17 -15 17 -5 0 -9 6 -9 13 0 14 39 41 47 33 3 -3 -2 -8 -11 -12 -9
-3 -16 -11 -16 -17 0 -16 40 24 57 57 l15 30 14 -33 c8 -18 14 -37 14 -42z
m128 -15 c13 -4 21 -12 19 -18 -3 -7 1 -20 9 -31 8 -10 14 -30 14 -43 0 -22 2
-23 16 -11 15 12 16 11 10 -9 -5 -15 -3 -22 6 -22 17 0 -32 -34 -55 -37 -15
-3 -16 -1 -5 11 7 8 18 11 23 8 6 -3 2 4 -9 16 -15 17 -16 25 -7 36 9 11 8 15
-5 20 -10 4 -21 1 -26 -6 -5 -9 -8 -7 -9 7 0 20 0 20 -9 0 -9 -20 -9 -20 -10
0 -2 11 -2 26 -1 33 1 6 -3 12 -8 12 -5 0 -11 -12 -13 -27 -2 -19 -9 -27 -25
-28 -19 -1 -23 4 -24 29 l-1 31 -8 -29 c-5 -16 -7 -33 -4 -38 3 -5 -4 -17 -15
-27 -12 -10 -21 -24 -21 -30 0 -9 -5 -9 -20 -1 -20 11 -26 43 -14 74 3 9 11
13 17 9 6 -4 8 0 4 10 -3 9 -3 16 1 16 20 -3 30 3 40 26 10 22 18 25 59 25 27
0 58 -3 71 -6z"/>
<path d="M1426 2132 c-3 -5 17 -8 44 -8 26 1 46 4 43 9 -6 10 -81 9 -87 -1z"/>
<path d="M1370 1940 c-6 -11 -14 -18 -18 -16 -5 3 -9 -4 -9 -15 -1 -10 5 -19
13 -19 8 0 14 1 14 3 0 1 4 17 9 35 11 36 7 42 -9 12z"/>
<path d="M1088 1744 c4 -48 2 -54 -15 -54 -10 0 -24 -5 -31 -12 -16 -16 -15
-48 1 -48 7 0 4 -5 -5 -11 -10 -5 -21 -9 -24 -9 -12 3 -24 -24 -23 -50 l1 -25
7 24 c6 24 7 24 25 5 19 -18 19 -18 14 8 -7 38 19 45 52 13 27 -26 51 -24 25
2 -20 20 -19 30 4 38 21 6 19 26 -4 55 -14 16 -9 80 6 80 5 0 9 5 9 11 0 5 -4
8 -9 4 -5 -3 -16 1 -23 9 -12 12 -14 6 -10 -40z"/>
<path d="M1424 1781 c4 -7 -2 -15 -16 -20 l-23 -10 23 0 c12 -1 22 -5 22 -10
0 -5 -10 -7 -22 -5 l-23 5 23 -10 c12 -6 22 -13 22 -16 0 -4 -4 -4 -8 -1 -5 3
-9 -1 -9 -8 0 -7 6 -13 14 -13 17 0 18 83 1 93 -7 4 -8 3 -4 -5z"/>
<path d="M1490 1716 c0 -48 -3 -56 -22 -62 -13 -4 -25 -6 -27 -5 -2 2 -8 -3
-12 -11 -12 -18 -11 -61 1 -53 6 3 10 1 10 -4 0 -27 28 -7 37 27 l10 37 2 -59
c1 -45 -2 -56 -11 -49 -20 15 -58 13 -58 -2 0 -7 7 -16 16 -19 10 -4 13 -2 8
6 -5 8 -2 9 10 5 10 -4 22 -7 27 -7 5 0 10 -33 10 -72 l2 -73 10 72 c8 60 13
72 31 77 11 3 28 19 37 35 21 36 8 69 -34 89 -24 12 -27 18 -27 68 0 29 -4 54
-10 54 -5 0 -10 -24 -10 -54z m53 -133 c4 -19 1 -32 -10 -40 -22 -17 -25 -11
-18 31 9 43 21 47 28 9z"/>
<path d="M1221 1751 c-10 -7 -12 -22 -7 -60 l7 -50 -36 -15 c-42 -18 -61 -57
-43 -89 12 -21 13 -21 19 13 5 29 7 32 14 16 5 -11 4 -26 -3 -37 -10 -15 -7
-18 18 -24 26 -6 30 -11 32 -43 2 -51 2 -54 16 -78 6 -12 9 -24 6 -27 -3 -3 3
-3 14 0 14 3 24 -2 32 -17 8 -15 8 -20 1 -16 -6 4 -11 2 -11 -3 0 -6 5 -11 10
-11 12 0 13 -37 1 -44 -5 -3 -7 -15 -4 -26 5 -19 6 -20 20 -3 13 17 14 16 9
-6 -4 -18 -2 -21 7 -12 9 9 9 16 -1 31 -17 27 -15 57 4 64 8 3 12 10 9 16 -4
6 -10 8 -15 5 -4 -3 -10 4 -13 15 -3 12 -14 20 -26 20 -19 0 -20 3 -11 20 7
14 7 20 0 20 -5 0 -10 -6 -11 -12 -1 -16 -27 61 -28 83 -1 10 10 19 27 22 33
7 57 45 47 76 -3 12 -20 28 -36 37 -30 15 -30 15 -24 80 7 63 3 72 -24 55z m2
-185 c-1 -34 2 -44 12 -40 7 3 16 15 19 27 6 20 7 21 17 4 13 -22 -6 -43 -39
-41 -32 2 -35 7 -27 53 9 55 20 52 18 -3z"/>
<path d="M1772 1744 c-10 -11 -12 -31 -7 -72 6 -55 5 -58 -24 -80 -24 -18 -29
-28 -26 -53 4 -36 23 -62 40 -55 29 11 36 -10 19 -52 -9 -23 -21 -42 -26 -42
-6 0 -5 -6 2 -15 7 -8 9 -22 6 -32 -6 -15 8 -32 26 -33 3 0 4 19 0 43 -5 40
-4 41 14 27 17 -14 18 -14 6 2 -9 11 -11 31 -7 61 6 37 11 46 30 50 13 2 29 1
35 -3 15 -9 9 -42 -8 -48 -8 -2 -10 3 -6 15 4 13 0 11 -15 -7 -22 -27 -26 -40
-12 -40 5 0 12 8 15 18 4 14 5 13 4 -3 0 -11 3 -35 7 -53 6 -24 10 -30 16 -20
6 9 9 4 9 -14 l0 -28 -32 20 c-36 22 -53 26 -43 10 4 -6 22 -17 41 -25 37 -15
42 -26 20 -44 -10 -9 -15 -8 -20 4 -7 19 -45 20 -52 1 -3 -8 -13 -13 -22 -11
-9 1 -11 0 -3 -2 9 -4 10 -7 3 -12 -7 -4 -8 -12 -2 -21 8 -12 10 -12 10 4 0
13 5 17 18 13 9 -2 24 -6 32 -8 40 -10 32 -39 -10 -39 -24 0 -28 3 -23 18 7
16 6 16 -10 0 -18 -18 -17 -43 5 -100 11 -30 23 -36 31 -15 3 8 10 5 22 -10
16 -22 43 -33 30 -13 -3 6 -1 10 4 10 16 0 13 -37 -3 -43 -8 -3 -20 0 -26 8
-6 8 -18 11 -26 8 -8 -3 -21 0 -29 7 -12 10 -15 9 -15 -4 0 -11 15 -20 46 -28
26 -7 49 -18 51 -25 3 -7 13 -13 22 -13 19 -1 61 -34 61 -49 0 -6 7 -11 15
-11 8 0 15 -7 15 -15 0 -8 7 -15 15 -15 26 0 17 16 -30 56 -34 28 -42 40 -34
48 8 8 13 7 16 -1 3 -7 11 -13 19 -13 8 0 17 -7 20 -15 4 -8 10 -13 15 -10 4
3 6 12 2 21 -3 8 -8 13 -10 10 -2 -2 -18 10 -34 26 -23 24 -26 34 -18 45 9 11
8 12 -5 7 -10 -4 -16 -18 -16 -40 0 -22 -5 -34 -14 -34 -21 0 -30 32 -11 42
13 8 13 11 -1 33 -9 14 -20 23 -24 20 -15 -9 -41 7 -36 21 4 11 -1 13 -21 8
-20 -5 -24 -4 -18 6 5 9 4 11 -3 6 -7 -4 -12 -1 -12 8 0 8 -3 21 -6 29 -4 12
0 14 15 10 12 -3 21 -13 22 -22 0 -10 3 -11 6 -4 3 8 13 3 29 -14 20 -22 24
-23 24 -8 0 10 3 15 7 12 3 -4 13 -1 21 5 13 11 14 8 8 -22 l-7 -35 15 32 c13
29 13 37 1 67 -8 20 -24 36 -37 39 -22 6 -22 7 -5 24 15 15 22 16 49 5 27 -10
36 -9 65 9 l33 21 0 -51 c0 -41 -4 -52 -21 -62 -18 -9 -26 -7 -50 17 -36 34
-37 29 -4 -16 25 -33 34 -67 16 -55 -5 3 -12 1 -15 -4 -9 -14 41 -42 68 -37
19 3 25 -1 29 -20 5 -29 0 -30 -27 -6 -21 17 -21 17 -4 -3 9 -11 30 -40 47
-65 24 -36 35 -44 62 -44 18 -1 34 -6 36 -12 2 -7 -7 -10 -24 -8 l-28 4 30
-10 c21 -7 31 -6 37 3 5 8 8 5 8 -9 0 -15 -8 -24 -25 -28 -14 -4 -25 -11 -25
-17 0 -6 5 -7 11 -3 6 3 14 1 18 -5 7 -11 51 -25 51 -16 0 2 -5 15 -11 29 -9
20 -8 32 5 60 9 19 14 41 10 49 -4 11 5 16 32 22 46 8 81 31 89 56 5 13 12 18
24 14 13 -4 23 4 36 29 19 34 19 36 0 55 -21 25 -64 27 -104 6 -30 -15 -48
-44 -33 -54 5 -3 8 -24 8 -46 -1 -39 -2 -40 -36 -40 -34 0 -35 1 -43 50 -4 27
-13 53 -19 57 -9 5 -8 11 1 22 7 9 18 13 24 9 5 -3 7 -1 4 4 -4 6 0 16 8 23 8
7 16 9 17 4 0 -5 2 -13 3 -19 2 -5 3 -16 4 -23 0 -7 6 -10 11 -7 12 7 3 46
-12 56 -16 10 1 46 23 52 11 3 23 15 26 26 3 12 11 17 19 14 21 -8 6 28 -20
49 -33 27 -78 23 -109 -10 -26 -27 -29 -62 -6 -62 5 0 9 -5 9 -11 0 -5 -6 -7
-12 -3 -7 4 -10 3 -5 -1 4 -5 17 -10 29 -12 12 -2 23 -5 26 -7 5 -6 -22 -46
-31 -46 -5 0 -15 -7 -23 -15 -28 -28 -114 -8 -114 27 0 22 20 34 30 18 5 -8
17 -10 34 -6 22 5 26 3 26 -14 0 -11 5 -20 11 -20 13 0 4 47 -13 67 -12 15
-32 18 -24 4 3 -5 -1 -14 -9 -21 -9 -7 -15 -8 -15 -2 0 5 -11 13 -24 16 -34 8
-37 41 -9 99 17 33 29 47 44 47 18 0 20 -5 17 -45 -3 -49 -19 -65 -25 -26 -6
42 -15 38 -12 -4 3 -34 1 -40 -15 -37 -15 3 -16 1 -5 -11 12 -13 18 -12 44 8
17 12 32 31 34 41 2 11 8 22 14 26 8 4 7 19 -2 50 -7 24 -16 54 -19 68 -5 17
-18 28 -39 34 -30 9 -33 14 -43 78 -8 46 -16 68 -26 68 -17 0 -17 0 1 -74 13
-54 13 -61 -3 -72 -9 -8 -23 -14 -29 -14 -12 0 -15 9 -17 55 -1 11 -13 26 -28
32 -24 12 -26 17 -24 73 2 40 -2 64 -10 71 -14 12 -34 4 -34 -13 0 -7 5 -6 14
1 10 8 16 9 21 1 9 -15 -5 -32 -21 -26 -11 4 -12 1 -6 -12 15 -28 21 -91 11
-98 -6 -3 -20 3 -32 14 -12 11 -31 22 -42 24 -15 2 -20 11 -20 37 0 19 5 36
11 38 7 2 9 -8 6 -27 -5 -33 13 -42 21 -11 14 56 -32 127 -61 95z m42 -236
c-11 -17 -24 15 -23 57 l1 40 14 -44 c7 -24 11 -48 8 -53z m96 34 c0 -15 -5
-33 -12 -40 -9 -9 -9 -12 0 -12 7 0 12 5 12 11 0 13 42 1 52 -14 4 -6 4 -24 1
-41 -4 -20 -3 -27 5 -22 8 5 10 2 6 -8 -3 -9 -1 -16 5 -16 6 0 11 17 12 38 1
31 2 33 8 13 11 -41 31 -37 31 6 0 28 3 34 10 23 5 -8 10 -29 10 -47 0 -25 -3
-30 -19 -26 -10 3 -21 -2 -24 -10 -4 -11 0 -13 13 -10 16 4 18 1 11 -23 -7
-29 -53 -62 -59 -44 -2 6 -12 10 -23 10 -10 0 -19 6 -19 14 0 8 -6 16 -12 19
-7 2 -10 7 -6 11 3 4 17 0 31 -9 29 -19 45 -5 21 19 -16 16 -71 19 -80 4 -10
-15 -22 -8 -26 17 -6 27 9 33 31 13 11 -11 12 -8 7 12 -3 14 -3 19 0 13 8 -18
24 -16 24 2 0 8 -9 20 -20 27 -11 7 -20 18 -20 25 0 12 -13 17 -32 14 -5 0 -8
11 -7 27 0 26 1 26 9 5 12 -29 18 -29 30 2 13 33 30 32 30 -3z m-150 4 c0 -7
7 -19 15 -26 24 -20 18 -31 -10 -18 -25 11 -37 58 -15 58 6 0 10 -6 10 -14z
m445 -237 c7 -29 1 -48 -10 -37 -10 9 -14 68 -5 68 5 0 11 -14 15 -31z m-246
-3 c7 -9 8 -17 2 -20 -14 -9 -41 4 -41 20 0 18 24 18 39 0z m-74 -86 c10 -11
14 -20 10 -20 -5 0 0 -7 11 -16 10 -8 13 -12 5 -8 -7 3 -17 0 -22 -7 -7 -10
-8 -5 -5 14 3 15 0 27 -5 27 -5 0 -9 -9 -9 -19 0 -10 -7 -21 -15 -25 -10 -4
-15 1 -15 15 0 13 4 18 11 13 8 -5 10 1 7 20 -6 31 2 33 27 6z m184 -58 c30
-18 30 -18 10 -36 -12 -10 -19 -20 -16 -22 3 -3 16 6 30 20 31 31 47 33 47 8
0 -11 9 -29 20 -42 35 -40 24 -53 -17 -20 -18 14 -33 18 -51 13 -20 -5 -30 0
-50 23 -13 16 -21 23 -18 17 4 -7 3 -13 -1 -13 -5 0 -15 6 -22 13 -10 10 -11
8 -6 -8 6 -18 5 -18 -5 -2 -12 19 -4 61 10 52 5 -3 11 -1 15 5 9 14 20 13 54
-8z m254 -90 c-25 -33 -37 -30 -40 9 -3 29 -2 29 14 13 22 -21 29 -4 15 35
-15 43 0 48 16 6 14 -34 13 -39 -5 -63z m-170 -42 c20 -22 37 -35 39 -28 3 7
7 5 11 -5 3 -9 2 -17 -3 -17 -5 0 -7 -7 -4 -15 4 -8 1 -15 -5 -15 -13 0 -31
41 -24 53 2 4 -3 7 -11 7 -19 0 -20 -12 -4 -28 10 -10 4 -11 -27 -6 -22 3 -41
7 -43 9 -2 1 9 17 23 34 27 32 24 42 -4 17 -20 -18 -44 -6 -35 17 11 29 49 19
87 -23z"/>
<path d="M1980 1696 c-6 -8 -10 -25 -7 -38 4 -20 4 -20 6 5 1 31 24 37 40 10
6 -10 11 -13 11 -6 0 10 -26 43 -34 43 -2 0 -9 -7 -16 -14z"/>
<path d="M1330 1690 c-1 -8 -1 -24 0 -35 2 -16 0 -17 -14 -6 -9 7 -14 17 -11
21 5 8 -17 20 -36 20 -5 0 -9 -10 -9 -22 0 -17 3 -19 9 -9 7 11 11 9 20 -8 7
-12 21 -21 36 -21 17 0 23 -4 19 -14 -7 -18 14 -32 28 -18 6 6 4 17 -9 31 -10
12 -21 34 -24 49 -4 15 -8 20 -9 12z"/>
<path d="M945 1667 c-3 -6 -8 -37 -13 -67 -7 -51 -9 -55 -37 -60 -22 -4 -35
-15 -47 -39 -16 -33 -16 -34 5 -51 12 -10 31 -20 43 -24 11 -3 26 -22 33 -41
7 -19 17 -35 22 -35 5 0 9 -5 9 -11 0 -6 -7 -8 -16 -5 -12 5 -14 1 -9 -17 6
-22 6 -21 -15 3 -14 16 -20 34 -18 52 3 15 4 28 2 28 -1 0 -12 -16 -24 -37
-17 -29 -19 -38 -8 -45 10 -8 9 -9 -4 -5 -11 4 -21 -5 -33 -29 -9 -20 -14 -38
-11 -41 3 -4 6 0 6 8 0 12 2 11 10 -1 9 -13 11 -13 20 0 5 8 10 24 10 35 1 19
1 19 14 3 7 -10 21 -18 30 -18 29 0 17 -17 -23 -30 -46 -15 -88 -7 -116 23
-16 17 -16 20 -2 14 9 -3 19 -2 22 3 3 4 -8 11 -24 15 -27 6 -29 8 -20 37 9
34 16 44 24 36 3 -3 1 -17 -4 -32 -7 -17 -7 -26 0 -26 5 0 12 7 15 15 4 8 10
12 16 9 5 -4 8 8 6 27 -2 24 -12 39 -33 54 l-30 20 16 65 c9 36 14 69 11 73
-9 18 -24 -13 -35 -77 -8 -49 -15 -66 -27 -66 -8 0 -25 -7 -38 -15 -17 -13
-21 -23 -17 -49 4 -25 2 -33 -9 -33 -12 0 -14 10 -11 46 l5 46 -14 -50 c-7
-27 -17 -58 -21 -67 -9 -23 17 -25 35 -3 10 12 16 13 28 3 13 -10 14 -10 8 0
-15 25 33 12 51 -14 10 -15 36 -47 59 -73 58 -66 60 -76 14 -94 -25 -9 -42
-11 -48 -5 -12 12 -3 50 10 42 10 -6 38 13 38 27 0 5 -6 6 -14 3 -8 -3 -16 4
-20 20 -11 43 -22 29 -34 -40 -6 -37 -13 -69 -16 -71 -3 -3 -17 -3 -31 1 -27
7 -33 33 -12 55 10 11 10 14 0 18 -7 3 -13 9 -13 14 0 6 4 8 8 5 4 -2 18 3 31
13 17 13 22 25 19 47 l-4 29 -13 -30 c-12 -29 -13 -29 -27 -11 -14 20 -14 20
-15 0 0 -17 -1 -16 -9 4 -5 12 -13 23 -17 23 -36 6 -61 5 -75 -2 -20 -11 -70
-117 -62 -131 9 -13 34 11 34 33 0 11 7 19 16 19 12 0 14 -7 9 -32 -10 -44
-13 -48 -39 -48 -19 0 -27 -12 -51 -71 -25 -63 -26 -72 -12 -86 13 -14 16 -12
22 15 9 44 41 51 72 18 13 -14 36 -28 51 -31 15 -4 35 -10 44 -15 9 -5 18 -5
20 -1 2 5 17 12 34 15 29 7 32 5 38 -26 6 -28 3 -37 -20 -56 -15 -13 -32 -21
-39 -18 -8 3 -16 -2 -19 -10 -3 -8 -17 -14 -31 -14 -14 0 -25 -4 -25 -10 0
-12 55 -2 92 16 37 19 39 18 26 -11 -6 -14 -8 -28 -4 -32 10 -10 26 17 26 45
0 12 5 22 10 22 6 0 10 6 10 14 0 8 14 19 30 25 37 12 39 19 4 15 -20 -2 -24
1 -19 13 3 9 1 19 -4 22 -6 4 -6 12 -2 20 13 20 55 -5 47 -27 -5 -13 -2 -12 9
2 8 11 15 30 15 43 0 13 4 23 9 23 13 0 42 48 44 72 1 11 17 34 37 51 19 17
34 36 32 43 -1 6 18 18 43 27 37 12 45 12 41 2 -7 -19 20 -40 30 -24 4 7 2 15
-4 17 -17 5 -15 29 3 36 17 6 21 36 5 36 -5 0 -10 -4 -10 -9 0 -12 -29 -41
-41 -41 -5 0 -9 9 -9 20 0 11 -4 20 -9 20 -5 0 -12 8 -15 18 -3 9 -3 0 0 -20
6 -43 -11 -51 -39 -20 -20 22 -21 35 -4 65 6 12 12 23 13 25 4 10 50 -26 46
-36 -6 -19 39 -12 55 8 11 13 12 13 13 -4 0 -15 3 -16 15 -6 12 10 15 10 15
-1 0 -8 3 -24 6 -36 5 -17 2 -23 -10 -23 -9 0 -16 -5 -16 -11 0 -6 7 -9 15 -6
8 4 17 2 20 -4 10 -15 25 0 24 24 0 21 -1 21 -8 2 -7 -18 -8 -17 -13 6 -4 23
-1 26 21 25 21 -1 26 4 24 21 -2 14 5 23 20 28 18 6 19 8 5 12 -9 2 -28 -3
-42 -12 -23 -16 -27 -15 -50 2 -23 17 -47 51 -27 38 5 -3 12 -1 16 5 3 5 -1
10 -9 10 -9 0 -16 4 -16 9 0 5 -8 11 -17 13 -11 2 0 9 25 15 34 9 42 8 42 -3
0 -8 5 -14 10 -14 6 0 10 -5 10 -11 0 -8 -5 -7 -15 1 -9 7 -18 11 -20 8 -10
-10 6 -33 30 -45 24 -10 25 -9 25 18 0 16 0 32 0 37 0 4 -6 7 -12 7 -12 0 -14
8 -9 34 0 5 10 7 21 4 20 -5 27 -22 32 -75 2 -22 6 -25 18 -18 12 8 13 11 1
19 -9 6 -10 11 -2 15 7 5 7 13 1 24 -5 9 -11 29 -15 45 -3 15 -10 27 -15 27
-5 0 -7 -7 -4 -15 7 -19 -10 -20 -25 -2 -8 10 -7 17 2 26 9 9 9 14 -3 21 -22
13 -30 3 -30 -41 0 -40 -7 -45 -63 -41 -10 1 -22 -9 -28 -22 -7 -14 -17 -22
-25 -19 -19 7 -31 -27 -13 -38 10 -6 16 -2 21 11 9 24 33 26 42 4 10 -26 7
-31 -19 -36 -26 -5 -68 26 -93 70 -11 20 -11 23 5 20 14 -2 18 4 19 27 2 49 4
55 14 55 6 0 8 -13 5 -30 -5 -28 -3 -30 26 -30 27 0 30 3 27 26 -2 15 -12 32
-23 38 -10 6 -25 17 -33 24 -7 6 -20 12 -27 12 -11 0 -10 12 4 64 15 54 16 66
4 70 -8 3 -16 0 -18 -7z m0 -235 c-3 -3 -10 -1 -15 4 -6 6 -5 24 3 49 l12 40
3 -44 c2 -23 1 -46 -3 -49z m-209 -70 c0 -26 -1 -39 -3 -30 -3 10 -10 15 -19
11 -8 -3 -14 -2 -14 1 0 8 29 66 33 66 1 0 2 -21 3 -48z m224 -152 c0 -6 -6
-10 -12 -10 -17 -1 -51 -48 -43 -60 3 -6 -5 -10 -19 -10 -21 0 -26 6 -32 35
-3 20 -5 37 -3 38 2 2 20 10 39 19 35 15 70 9 70 -12z m-373 -17 c-1 -29 5
-45 26 -66 28 -27 28 -53 1 -43 -9 4 -14 -2 -14 -16 0 -17 -3 -19 -12 -10 -10
10 -10 17 0 33 11 17 11 20 -5 17 -16 -3 -18 4 -14 52 3 51 7 70 15 70 2 0 3
-17 3 -37z m47 2 c-3 -14 -2 -25 4 -25 6 0 8 -9 5 -20 -7 -25 -23 -26 -23 -1
0 11 -4 21 -9 23 -12 4 5 48 19 48 6 0 8 -10 4 -25z m237 -94 c17 -16 18 -19
4 -31 -12 -10 -15 -10 -15 1 0 11 -2 11 -10 -1 -5 -9 -5 -19 2 -27 6 -8 8 -16
4 -20 -3 -3 -6 0 -6 7 0 7 -3 11 -6 7 -9 -9 -56 62 -49 74 10 15 55 10 76 -10z
m-309 -25 c7 4 8 -5 3 -27 -10 -50 -27 -62 -23 -17 3 40 -14 53 -22 17 -3 -12
-11 -24 -19 -27 -9 -3 -9 4 3 27 9 17 13 31 9 32 -5 0 1 4 12 8 14 6 21 4 23
-5 2 -8 8 -11 14 -8z m151 -40 c2 -27 -1 -47 -11 -58 -18 -21 -42 -24 -43 -5
0 10 -2 10 -6 0 -8 -20 -58 -15 -78 7 -18 20 -18 21 1 34 10 8 21 10 22 5 7
-19 21 -8 27 24 11 49 21 57 55 44 23 -9 29 -18 33 -51z m84 32 c29 -27 31
-52 3 -43 -10 3 -28 1 -39 -4 -16 -9 -20 -8 -19 6 0 10 0 23 -2 28 -10 40 21
47 57 13z m33 -78 c0 -24 -8 -25 -34 -5 -22 17 -46 4 -46 -23 0 -13 -2 -14
-12 -3 -11 10 -8 16 11 32 32 26 81 26 81 -1z"/>
<path d="M767 1629 c-9 -6 -17 -15 -17 -21 0 -9 3 -9 12 0 18 18 28 15 38 -10
9 -23 9 -23 9 -2 1 29 -19 45 -42 33z"/>
<path d="M1063 1560 c-12 -28 -6 -47 9 -32 5 5 8 20 6 33 l-5 24 -10 -25z"/>
<path d="M2157 1563 c-13 -12 -7 -25 7 -14 20 17 44 -14 29 -38 -12 -19 -1
-90 18 -120 7 -11 8 2 3 44 -4 33 -7 69 -6 80 1 11 -6 27 -15 37 -17 19 -26
22 -36 11z"/>
<path d="M1595 1539 c-10 -16 -19 -175 -9 -166 5 4 9 22 10 40 1 18 5 56 8 85
5 52 3 61 -9 41z"/>
<path d="M1386 1473 c-6 -53 -4 -69 8 -82 14 -13 15 -10 12 37 -2 29 0 52 5
52 13 0 10 22 -5 43 -12 15 -14 9 -20 -50z"/>
<path d="M1629 1483 c-10 -12 -10 -15 -1 -9 7 4 15 1 18 -8 4 -10 18 -15 38
-14 17 1 42 -4 55 -11 21 -12 22 -11 11 8 -6 12 -15 22 -20 22 -6 1 -16 2 -22
3 -7 1 -16 -3 -21 -9 -5 -6 -14 -2 -26 12 -17 21 -20 21 -32 6z"/>
<path d="M1320 1461 c-7 -11 -17 -18 -21 -15 -4 2 -10 0 -14 -6 -7 -11 25 -13
41 -2 13 9 26 42 16 42 -4 0 -14 -9 -22 -19z"/>
<path d="M824 1425 c-4 -15 -2 -31 5 -38 6 -6 12 -20 12 -31 1 -12 5 -1 9 24
5 32 3 48 -6 58 -11 11 -15 8 -20 -13z"/>
<path d="M1622 1417 c-15 -42 -15 -44 2 -50 10 -4 13 -1 9 9 -3 8 1 14 8 14
11 0 11 3 -1 10 -13 9 -13 11 0 20 10 6 12 12 4 20 -7 7 -14 0 -22 -23z"/>
<path d="M1420 1366 c-25 -11 -44 -27 -42 -34 1 -6 -5 -12 -13 -12 -8 0 -15
-4 -15 -10 0 -6 9 -6 24 0 21 7 26 6 31 -10 4 -11 11 -20 16 -20 6 0 5 9 -2
22 -8 16 -9 23 -1 26 6 2 9 9 6 16 -3 8 8 16 28 22 18 5 28 13 23 16 -6 3 -30
-4 -55 -16z"/>
<path d="M1482 1354 c-11 -12 -11 -17 1 -29 11 -10 17 -11 26 -2 15 15 14 30
-1 21 -8 -5 -9 -2 -5 9 8 21 -3 21 -21 1z"/>
<path d="M1684 1345 c-5 -20 -9 -23 -19 -15 -10 9 -19 6 -34 -9 -18 -18 -18
-20 -3 -25 30 -8 67 0 68 15 2 34 5 39 18 39 8 0 18 5 21 10 4 6 -5 10 -19 10
-19 0 -27 -7 -32 -25z"/>
<path d="M1239 1338 c-8 -31 -5 -58 6 -58 8 0 17 5 20 10 3 6 0 10 -7 10 -10
0 -10 2 1 9 14 9 7 31 -10 31 -5 0 -9 -1 -10 -2z"/>
<path d="M1531 1313 c11 -2 15 -11 12 -22 -3 -10 0 -22 6 -25 7 -5 12 3 12 21
2 23 2 24 6 6 2 -13 9 -23 15 -23 5 0 8 7 4 15 -3 8 0 15 7 16 22 1 -28 18
-53 17 -14 0 -18 -2 -9 -5z"/>
<path d="M1462 1265 c-1 -22 2 -35 6 -29 6 9 63 12 82 4 3 -1 8 -2 13 -1 4 0
7 -3 7 -9 0 -5 5 -10 11 -10 5 0 7 5 4 10 -11 17 7 11 21 -7 7 -10 14 -13 14
-6 0 12 17 12 38 0 8 -6 12 -2 12 11 0 16 -5 19 -22 14 -14 -3 -19 -1 -14 6 5
8 1 10 -10 5 -14 -5 -16 -3 -11 12 6 14 5 15 -5 7 -15 -12 -45 -16 -100 -14
-29 2 -37 6 -41 25 -2 12 -5 5 -5 -18z"/>
<path d="M1346 1278 c-12 -26 0 -36 44 -34 39 2 41 1 35 -25 -6 -27 8 -48 19
-30 4 5 2 12 -3 16 -7 4 -7 15 -1 31 12 30 13 54 2 39 -4 -6 -24 -11 -44 -12
-28 -2 -38 2 -41 15 -4 16 -4 16 -11 0z"/>
<path d="M2297 1283 c-4 -3 -7 -16 -6 -27 0 -14 3 -16 6 -7 4 10 10 5 19 -15
10 -23 13 -25 13 -9 2 46 -15 76 -32 58z"/>
<path d="M1678 1274 c-4 -5 -3 -16 1 -23 4 -7 6 -24 4 -39 -4 -25 -3 -25 10
-10 12 15 16 16 33 3 18 -13 18 -14 -5 -37 -16 -16 -25 -19 -28 -10 -8 21 -25
13 -18 -9 5 -14 1 -27 -13 -39 -11 -10 -23 -16 -26 -13 -3 4 -6 1 -6 -5 0 -18
18 -14 40 8 11 11 20 25 20 30 0 6 3 9 8 8 4 -1 17 4 30 12 15 11 22 25 22 48
0 18 -3 31 -7 29 -16 -9 -48 11 -53 34 -3 13 -9 19 -12 13z"/>
<path d="M1234 1255 c-4 -8 -17 -15 -30 -15 -13 0 -24 -4 -24 -10 0 -5 6 -7
14 -4 8 3 16 -2 19 -13 4 -16 5 -16 6 0 1 22 20 22 28 1 6 -15 8 -15 20 2 17
23 17 34 -2 34 -9 0 -12 -6 -9 -17 5 -17 5 -17 -6 0 -6 9 -8 22 -5 27 3 6 4
10 0 10 -3 0 -8 -7 -11 -15z"/>
<path d="M1350 1206 c0 -8 -5 -16 -11 -18 -7 -2 -7 -12 2 -31 12 -27 29 -37
29 -17 0 6 -4 10 -10 10 -5 0 -10 9 -10 20 0 24 9 26 24 5 8 -10 15 -12 26 -5
13 8 11 11 -7 16 -13 4 -23 13 -23 20 0 8 -4 14 -10 14 -5 0 -10 -6 -10 -14z"/>
<path d="M1463 1198 c-6 -7 -13 -21 -16 -30 -4 -10 -12 -15 -21 -12 -11 4 -13
0 -9 -15 4 -16 1 -21 -16 -21 -12 0 -21 -6 -21 -16 0 -8 4 -13 9 -9 6 3 14 -3
20 -12 6 -10 11 -12 11 -5 0 19 20 14 20 -5 0 -9 3 -14 6 -10 4 3 2 20 -4 36
-7 19 -7 31 -1 31 5 0 9 6 9 13 0 7 9 18 20 25 11 7 20 19 20 27 0 18 -14 20
-27 3z"/>
<path d="M1520 1195 c-12 -15 -4 -21 24 -16 5 1 6 -5 3 -13 -8 -21 15 -26 44
-10 l24 14 -22 6 c-13 3 -23 11 -23 16 0 5 -5 6 -11 2 -6 -3 -15 -1 -19 5 -5
9 -10 8 -20 -4z"/>
<path d="M1280 1189 c0 -6 -6 -9 -14 -6 -8 3 -37 -3 -64 -13 -38 -15 -52 -16
-61 -7 -17 17 -31 -10 -25 -50 3 -17 0 -34 -6 -38 -12 -7 5 -45 21 -45 6 0 7
5 4 10 -4 6 -2 17 5 25 7 9 8 15 0 20 -9 6 -15 65 -6 65 2 0 16 -7 32 -14 28
-15 49 -12 39 5 -9 13 9 11 25 -3 12 -11 12 -10 2 3 -15 19 -6 29 25 29 16 0
22 -4 18 -12 -4 -7 1 -4 9 6 9 11 22 23 28 28 9 5 5 8 -9 8 -13 0 -23 -5 -23
-11z"/>
<path d="M1634 1155 c4 -10 -1 -15 -15 -15 -15 0 -19 -5 -16 -15 9 -23 -14
-30 -31 -9 -14 18 -14 18 -9 -3 5 -24 -17 -63 -37 -63 -8 0 -17 16 -20 36 -7
36 -30 54 -48 36 -6 -6 -6 -12 2 -17 7 -4 17 -1 22 6 6 10 8 2 6 -24 -4 -33
-1 -40 19 -48 26 -10 63 7 63 29 0 7 3 11 8 8 10 -6 37 15 45 37 3 9 14 17 23
17 11 0 14 5 10 16 -3 9 -6 18 -6 20 0 2 -5 4 -11 4 -6 0 -9 -7 -5 -15z"/>
<path d="M1075 1127 c-4 -8 -17 -18 -29 -21 -27 -7 -66 -39 -66 -55 0 -17 9
-13 34 14 30 32 33 31 28 -5 -4 -27 -12 -35 -34 -31 -5 0 -8 -6 -8 -14 0 -8
-4 -15 -10 -15 -5 0 -10 -7 -10 -15 0 -18 6 -19 26 -2 39 32 54 53 54 74 0 13
7 35 16 49 9 13 14 27 11 31 -4 3 -9 -1 -12 -10z"/>
<path d="M1223 1108 c-21 -11 -34 -14 -38 -7 -5 7 -12 6 -21 -2 -12 -10 -12
-15 2 -37 15 -22 15 -27 2 -36 -11 -8 -12 -15 -5 -27 9 -15 13 -13 26 15 15
29 15 32 -1 44 -26 19 -22 35 5 20 12 -7 27 -11 34 -10 16 3 48 -29 47 -45 -1
-7 -2 -17 -3 -23 -2 -18 -23 -11 -28 10 -3 11 -9 20 -14 20 -5 0 -9 -9 -9 -20
0 -11 7 -20 15 -20 8 0 15 -5 15 -11 0 -6 -9 -9 -20 -6 -11 3 -20 2 -20 -3 0
-13 39 -56 40 -42 0 6 -5 12 -11 12 -8 0 -8 5 1 15 13 15 35 21 27 8 -6 -10
19 -34 27 -26 3 3 12 0 21 -7 8 -7 15 -8 15 -3 0 5 -13 20 -29 33 -28 25 -31
50 -5 50 8 0 14 5 14 10 0 6 14 1 30 -12 17 -12 30 -29 29 -37 0 -11 -2 -12
-6 -3 -7 19 -23 14 -23 -7 0 -24 16 -36 23 -17 9 22 86 32 100 12 14 -18 45
-16 58 5 7 11 9 11 9 0 0 -8 7 -11 20 -8 11 3 20 1 20 -4 0 -5 5 -9 10 -9 6 0
10 7 10 16 0 10 -7 14 -22 12 -13 -2 -32 5 -42 14 -26 24 -40 23 -33 -2 8 -30
-20 -25 -37 8 -12 22 -15 23 -16 8 0 -11 -3 -17 -6 -13 -3 3 -17 2 -30 -3 -16
-6 -24 -6 -24 1 0 6 -7 17 -16 26 -8 9 -13 22 -10 29 6 16 -10 19 -19 4 -4 -6
-25 0 -56 17 -48 28 -60 51 -23 45 10 -1 31 -4 46 -5 27 -3 68 -37 68 -56 0
-13 28 -8 43 9 10 10 9 12 -6 6 -20 -6 -56 27 -57 53 0 7 -6 11 -15 7 -8 -3
-15 -1 -15 4 0 14 -61 7 -97 -12z"/>
<path d="M1682 1085 c-33 -32 -34 -33 -17 -59 18 -26 27 -31 38 -20 3 4 -4 15
-16 25 l-22 18 30 25 c27 21 31 22 37 8 12 -30 9 -42 -9 -35 -11 4 -14 3 -9
-5 4 -7 13 -12 21 -12 16 0 31 40 18 49 -5 3 -12 14 -16 24 -8 23 -16 20 -55
-18z"/>
<path d="M2402 1097 c-7 -8 -7 -18 -2 -27 14 -21 12 -30 -5 -30 -12 0 -14 -9
-10 -44 4 -32 2 -45 -8 -49 -11 -4 -13 8 -11 61 1 37 0 60 -3 52 -3 -8 -11
-20 -19 -26 -10 -8 -11 -19 -3 -48 12 -44 3 -80 -17 -72 -9 3 -12 1 -9 -4 9
-15 -26 -12 -75 5 -43 15 -43 15 -25 -5 11 -12 31 -20 52 -20 32 0 33 -1 19
-22 -8 -13 -13 -32 -11 -43 2 -11 4 -24 4 -29 1 -4 8 -6 16 -2 9 3 15 0 15 -9
0 -36 -92 -3 -138 49 -36 41 -62 37 -62 -10 0 -24 -4 -33 -12 -28 -7 5 -8 3
-4 -5 5 -7 0 -18 -10 -26 -12 -9 -15 -17 -9 -22 6 -5 21 -25 35 -45 15 -22 40
-44 63 -53 29 -12 37 -20 37 -41 0 -14 4 -23 10 -19 6 3 10 1 10 -4 0 -6 5
-11 10 -11 7 0 8 13 4 35 -6 34 8 50 19 23 3 -7 6 -1 6 14 1 15 -3 30 -9 33
-5 3 -10 11 -10 18 0 6 6 3 13 -8 10 -12 16 -14 21 -7 13 21 23 13 18 -13 -2
-14 0 -25 6 -25 5 0 13 -10 17 -22 6 -19 8 -20 12 -6 2 9 -1 26 -6 37 -13 24
-15 121 -2 121 5 0 13 9 16 20 8 25 22 26 28 3 4 -16 5 -16 6 1 0 11 9 28 18
38 21 23 8 51 -27 56 -17 3 -21 0 -17 -12 3 -8 2 -18 -3 -21 -6 -4 -10 5 -10
20 0 15 7 28 16 32 10 3 30 20 45 36 16 17 29 26 29 20 0 -5 -5 -14 -11 -20
-8 -8 -5 -13 11 -18 13 -4 19 -12 16 -21 -3 -7 -1 -16 4 -19 13 -8 13 50 1 73
-6 9 -12 30 -16 45 -4 18 -10 25 -18 21 -7 -4 -4 2 6 13 14 16 16 26 8 47 -12
30 -14 31 -29 13z m-231 -288 c40 -36 69 -49 110 -49 16 0 29 -4 29 -10 0 -5
-22 -10 -49 -10 -58 0 -74 -15 -65 -59 9 -42 -6 -40 -56 9 -44 43 -48 54 -24
77 10 11 14 26 10 45 -7 36 2 35 45 -3z"/>
<path d="M2158 765 c7 -37 22 -41 22 -6 0 20 -5 31 -14 31 -9 0 -12 -8 -8 -25z"/>
<path d="M951 1031 c-9 -16 -18 -20 -39 -15 -23 4 -24 4 -9 -6 14 -9 16 -15 6
-26 -17 -21 -29 -17 -29 9 0 16 -3 18 -9 8 -5 -7 -6 -22 -4 -32 4 -13 0 -19
-10 -19 -9 0 -17 -10 -19 -22 -2 -12 -14 -28 -28 -36 -20 -10 -21 -12 -5 -10
12 3 25 -4 32 -17 11 -19 12 -18 13 12 0 20 7 36 18 42 10 6 12 11 4 11 -19 0
-4 20 16 20 9 0 29 15 44 32 l28 33 -12 -37 c-7 -24 -15 -35 -24 -31 -9 3 -14
-2 -14 -16 0 -14 -6 -21 -18 -21 -10 0 -19 -6 -19 -12 0 -7 -4 -21 -8 -30 -5
-13 -3 -18 8 -18 10 0 15 -8 14 -20 -1 -11 -4 -20 -7 -20 -4 0 -7 -6 -7 -14 0
-8 5 -14 10 -13 5 1 11 -6 12 -15 2 -10 -1 -18 -6 -18 -5 0 -9 -7 -9 -16 0
-11 5 -14 16 -10 12 5 15 0 14 -22 -1 -15 -2 -34 -1 -42 1 -13 2 -13 12 0 8
12 10 9 6 -14 -4 -22 0 -30 14 -33 22 -6 24 -14 7 -32 -11 -11 -10 -13 3 -8
23 7 43 -8 33 -24 -5 -8 -7 -22 -6 -31 2 -10 -1 -18 -7 -18 -5 0 -12 -8 -14
-17 -3 -13 -5 -14 -6 -3 0 8 -11 20 -23 25 -19 9 -55 57 -57 78 -1 4 6 7 14 7
8 0 22 -16 31 -35 21 -46 29 -49 42 -21 9 21 8 22 -14 18 -19 -3 -23 -1 -18
12 4 10 0 22 -11 30 -10 7 -15 18 -11 24 3 6 -1 15 -10 20 -12 6 -15 18 -12
36 3 14 1 26 -3 26 -5 0 -9 11 -9 24 0 14 -7 31 -15 39 -11 12 -12 17 -2 21 8
3 6 10 -8 21 -17 14 -18 17 -5 25 13 9 13 10 0 11 -8 1 -18 1 -22 0 -5 0 -8 4
-8 9 0 7 -5 6 -13 -2 -18 -16 -17 -36 1 -43 10 -3 12 0 8 10 -3 8 -1 15 4 15
10 0 13 -10 12 -45 0 -11 9 -26 19 -33 23 -16 24 -28 4 -36 -11 -4 -19 3 -25
19 -12 32 -24 32 -16 0 6 -25 -8 -35 -18 -12 -3 6 -4 3 -3 -8 2 -14 9 -19 24
-17 34 5 40 -34 11 -65 l-23 -25 -5 34 c-4 26 -11 35 -37 43 l-31 11 39 39
c42 42 47 52 24 52 -8 0 -15 -6 -15 -13 0 -21 -71 -76 -91 -71 -10 3 -18 2
-17 -2 2 -21 -4 -23 -18 -3 -14 21 -34 22 -34 3 0 -10 38 -24 57 -22 8 1 10
-5 7 -14 -3 -8 -10 -12 -15 -9 -5 3 -9 1 -9 -5 0 -5 5 -11 11 -13 8 -3 6 -14
-5 -36 -21 -40 -11 -64 13 -30 16 23 28 26 68 13 18 -6 21 -11 13 -25 -17 -32
-12 -44 11 -24 11 10 18 26 16 36 -3 10 -1 18 4 18 4 0 24 14 44 31 19 17 35
26 35 20 0 -6 6 -10 12 -9 29 6 10 -25 -22 -36 -30 -10 -36 -16 -43 -56 -13
-69 -13 -73 1 -77 7 -3 12 5 12 22 0 17 4 24 11 19 6 -3 15 0 20 7 8 12 11 11
19 -3 6 -9 16 -15 24 -12 9 4 11 -4 8 -27 -3 -22 -1 -30 7 -25 6 4 11 14 11
22 0 27 16 14 54 -46 24 -38 44 -59 52 -56 7 3 16 0 20 -6 5 -7 2 -8 -7 -4 -8
4 -3 -1 11 -12 30 -25 47 -15 56 34 7 37 24 47 24 14 0 -11 7 -20 15 -20 13 0
14 4 5 20 -7 14 -7 20 0 20 5 0 10 5 10 11 0 6 -8 8 -19 4 -12 -4 -21 0 -26
12 -6 16 -8 15 -20 -7 -8 -16 -10 -31 -4 -41 6 -12 4 -19 -7 -23 -24 -9 -26
-8 -19 13 3 11 0 23 -6 27 -9 5 -7 10 7 15 17 6 17 8 -8 17 -14 6 -29 16 -33
21 -10 18 -25 13 -25 -8 0 -14 5 -18 20 -14 14 4 20 0 20 -10 0 -8 3 -23 7
-33 4 -12 2 -15 -8 -12 -8 3 -15 10 -15 16 -1 7 -2 17 -3 24 0 6 -4 8 -8 5 -3
-4 -12 -2 -20 4 -16 14 -18 69 -2 69 6 0 9 6 6 14 -5 12 -1 13 24 4 16 -5 29
-14 29 -20 0 -5 5 -6 10 -3 15 9 12 25 -5 25 -8 0 -15 7 -15 16 0 11 -6 15
-19 11 -13 -3 -18 -1 -14 8 2 8 0 22 -6 32 -5 11 -6 25 -2 32 6 10 10 9 15 -5
3 -9 9 -14 12 -11 3 3 0 14 -8 26 -12 20 -13 20 -23 2 -9 -17 -12 -18 -28 -6
-18 13 -18 14 2 34 26 26 41 27 48 1 6 -24 19 -25 41 -3 16 16 16 16 -5 11
-23 -6 -38 13 -23 28 5 5 1 16 -8 24 -14 13 -15 12 -9 -4 5 -14 3 -17 -8 -13
-8 4 -21 0 -29 -8 -17 -18 -36 -20 -36 -4 0 17 30 41 44 36 8 -3 17 1 20 9 3
9 12 12 18 9 7 -4 5 0 -4 8 -23 18 -23 39 -1 35 9 -2 21 -18 28 -37 13 -39 37
-56 28 -20 -4 16 -2 20 8 17 8 -3 13 -13 11 -23 -3 -17 -3 -17 14 0 17 16 17
18 1 30 -9 6 -14 15 -10 18 3 4 1 13 -5 20 -7 8 -8 18 -4 22 4 5 2 5 -5 2 -6
-4 -13 -1 -16 5 -2 7 -7 10 -11 7 -4 -4 0 -14 9 -22 32 -32 13 -50 -21 -19
-13 13 -26 16 -44 11 -14 -4 -21 -7 -16 -8 5 -1 0 -9 -11 -18 -11 -10 -22 -26
-26 -36 -8 -22 -27 -13 -27 12 0 22 33 54 45 44 5 -5 3 0 -4 10 -18 22 -28 22
-36 -3 -4 -11 -11 -18 -16 -15 -13 8 -11 45 2 45 6 0 17 7 26 15 14 14 14 18
-2 35 -16 18 -16 20 2 47 25 37 45 105 34 116 -5 5 -14 0 -20 -12z"/>
<path d="M1466 1026 c15 -23 44 -26 44 -4 0 5 -4 7 -9 4 -5 -3 -14 1 -21 9
-20 25 -32 17 -14 -9z"/>
<path d="M1565 1030 c4 -6 1 -17 -5 -25 -9 -11 -8 -14 8 -12 12 0 18 6 15 14
-3 7 0 13 7 13 6 0 8 5 5 10 -3 6 -13 10 -21 10 -8 0 -12 -5 -9 -10z"/>
<path d="M1078 1023 c17 -7 15 -30 -4 -41 -15 -8 -15 -10 0 -15 17 -7 23 -57
6 -57 -10 0 -12 5 -14 33 -2 28 -76 22 -76 -7 0 -6 -5 -4 -10 4 -8 12 -10 11
-10 -7 0 -12 -5 -25 -10 -28 -6 -4 -5 -12 4 -21 16 -16 11 -44 -7 -44 -6 0 -1
-7 11 -16 13 -9 26 -13 30 -9 3 3 0 10 -7 14 -16 10 -6 31 14 31 7 0 16 7 19
16 3 8 10 12 16 9 6 -4 8 -10 5 -15 -9 -15 23 -19 35 -5 7 8 16 13 20 10 5 -3
11 -1 15 5 9 14 -19 12 -33 -2 -10 -10 -15 -10 -22 2 -16 25 -12 28 32 24 67
-6 78 -35 18 -47 -35 -7 -41 -26 -7 -24 29 1 71 48 54 59 -8 5 -7 8 5 8 9 0
20 4 23 10 3 5 0 7 -8 4 -9 -3 -22 4 -31 18 -10 14 -16 17 -16 8 0 -11 -6 -9
-21 7 -18 17 -19 24 -9 43 10 18 9 24 -1 31 -8 5 -18 8 -24 8 -5 0 -4 -3 3 -6z
m-48 -83 c0 -5 8 -10 17 -10 12 0 9 -7 -13 -30 -36 -36 -40 -37 -46 -5 -4 17
-1 25 9 25 8 0 11 -5 7 -12 -4 -6 -3 -8 4 -5 5 4 8 16 5 27 -3 11 0 20 6 20 6
0 11 -4 11 -10z"/>
<path d="M1620 1020 c12 -7 12 -12 -4 -29 -17 -19 -17 -20 3 -30 25 -14 31
-14 31 -1 0 6 -3 9 -7 9 -28 -5 -32 3 -13 23 26 28 25 38 -2 38 -18 0 -20 -2
-8 -10z"/>
<path d="M1117 1007 c-7 -18 4 -32 26 -33 20 -2 21 5 3 29 -16 21 -22 21 -29
4z"/>
<path d="M2303 1012 c-7 -5 -9 -19 -5 -39 5 -25 10 -30 21 -24 11 7 12 17 5
40 -6 20 -13 28 -21 23z"/>
<path d="M1820 1000 c0 -21 20 -40 43 -40 10 0 17 -5 15 -11 -2 -6 -6 -9 -8
-7 -3 2 -16 -7 -30 -19 -26 -25 -41 -30 -37 -12 1 6 -4 14 -12 17 -10 3 -12 0
-7 -13 4 -12 2 -16 -7 -12 -11 4 -13 -7 -8 -55 1 -5 5 -8 10 -8 4 0 6 11 3 25
-4 25 3 30 32 19 20 -8 21 -24 1 -24 -18 0 -17 3 -6 -38 8 -25 7 -32 -4 -32
-9 0 -12 -6 -9 -15 5 -11 2 -13 -11 -9 -12 5 -16 15 -13 36 4 27 3 29 -19 23
-16 -4 -22 -2 -18 5 3 5 1 10 -4 10 -19 0 -12 -22 9 -27 11 -3 20 -11 20 -19
0 -24 -21 -26 -41 -5 -11 12 -17 21 -14 21 3 0 -2 11 -10 24 -11 16 -13 26 -6
31 15 8 14 26 0 23 -6 -2 -13 2 -16 8 -2 7 6 11 21 10 14 0 28 -7 31 -13 6
-18 25 -16 25 2 0 8 -6 15 -12 15 -10 0 -10 2 -1 8 8 5 7 14 -7 32 -15 20 -21
22 -33 12 -17 -14 -33 0 -22 18 3 6 0 10 -8 10 -10 0 -13 -8 -10 -24 4 -19 0
-24 -26 -29 -22 -5 -31 -12 -31 -26 0 -11 -5 -21 -10 -23 -6 -2 -1 -9 11 -16
12 -8 18 -9 14 -3 -3 6 1 11 9 11 9 0 16 4 16 10 0 5 -5 9 -11 7 -6 -1 -14 4
-17 12 -3 10 0 12 11 8 9 -3 17 -1 19 5 2 5 24 12 48 15 36 4 42 2 33 -7 -6
-7 -22 -14 -35 -15 -13 -1 -26 -3 -29 -4 -3 0 -4 -17 -3 -36 2 -19 -1 -35 -5
-35 -21 0 3 -37 30 -47 32 -12 40 -47 13 -57 -13 -5 -15 -1 -10 21 6 27 5 27
-9 9 -8 -11 -18 -17 -21 -13 -4 4 -1 13 6 22 8 9 8 15 2 15 -16 0 -26 -41 -12
-50 9 -5 9 -9 1 -14 -21 -13 -29 3 -26 53 2 37 0 48 -10 45 -9 -4 -12 -18 -9
-40 6 -46 -3 -60 -26 -39 -16 15 -18 14 -23 -4 -3 -13 -1 -18 8 -14 20 7 39
-35 24 -53 -6 -8 -9 -17 -5 -21 3 -3 6 0 6 7 0 10 3 11 11 3 6 -6 18 -9 25 -6
8 3 14 -1 14 -10 0 -8 7 -20 15 -27 10 -8 12 -16 6 -19 -6 -4 -2 -12 9 -19 16
-10 18 -9 14 3 -4 8 -1 15 5 15 6 0 11 -8 11 -19 0 -10 7 -24 15 -31 24 -20
18 -27 -22 -25 -21 1 -41 -3 -45 -9 -5 -7 -8 -5 -9 4 0 10 -3 8 -9 -5 -7 -17
-9 -17 -9 -3 -1 19 -31 14 -31 -5 0 -6 3 -7 7 -4 3 4 12 -1 19 -11 8 -10 13
-12 14 -4 0 6 11 12 25 12 14 0 25 5 25 10 0 6 5 10 10 10 21 0 9 -19 -17 -28
l-28 -11 28 2 c15 1 27 5 27 9 0 4 7 8 15 8 9 0 18 7 21 15 4 8 11 12 16 9 6
-4 18 3 28 16 14 19 19 20 31 8 19 -19 49 -30 49 -18 0 20 -5 25 -22 22 -10
-2 -18 2 -18 7 0 18 -38 12 -49 -6 -8 -15 -12 -16 -35 -3 -27 14 -34 34 -16
45 6 3 13 -1 16 -9 8 -20 30 -21 37 -2 4 10 0 12 -15 8 -16 -4 -20 -2 -15 10
4 11 -2 17 -19 21 -13 2 -27 0 -30 -5 -3 -4 -10 -6 -15 -2 -5 3 -7 10 -4 15 4
5 0 9 -7 9 -9 1 -9 4 3 13 8 7 18 21 22 32 6 17 4 16 -11 -4 -21 -26 -34 -17
-25 18 4 16 11 20 24 16 11 -4 19 -2 19 5 0 6 5 8 10 5 6 -3 10 -15 10 -27 0
-17 2 -18 15 -8 10 9 15 9 15 1 0 -6 7 -11 15 -11 8 0 15 -5 15 -11 0 -5 -3
-8 -8 -5 -4 2 -15 -2 -25 -9 -16 -11 -16 -13 -2 -19 24 -9 46 19 50 62 2 20 3
40 4 43 1 3 10 16 21 29 l20 23 0 -26 c0 -17 -5 -27 -14 -27 -8 0 -18 -6 -22
-12 -4 -7 -4 -10 1 -6 4 4 21 0 37 -8 16 -8 33 -12 37 -9 5 3 19 -6 30 -21 12
-15 25 -23 32 -18 8 5 7 9 -5 16 -20 11 -21 28 -2 28 9 0 12 8 8 25 -5 26 -22
29 -30 5 -3 -7 0 -10 7 -6 7 5 9 1 5 -8 -3 -9 -13 -16 -21 -16 -9 0 -13 6 -9
15 6 17 -5 20 -21 4 -7 -7 -13 -7 -17 -1 -3 6 -2 13 4 17 5 3 10 17 10 31 0
17 -6 24 -19 24 -16 0 -31 18 -31 36 0 9 25 3 40 -11 10 -9 25 -12 40 -8 22 6
22 7 4 13 -10 4 -22 2 -26 -4 -5 -6 -8 -2 -8 11 0 30 20 40 36 19 7 -10 17
-15 23 -11 6 3 11 0 11 -7 0 -19 -18 -43 -31 -43 -7 0 -14 -5 -16 -12 -3 -9
10 -12 46 -9 52 3 64 -5 34 -23 -14 -7 -12 -9 10 -8 15 1 26 7 26 12 -3 22 2
35 11 35 6 0 10 -7 10 -15 0 -19 7 -19 26 -1 19 20 18 26 -6 26 -18 0 -25 11
-21 33 1 5 -4 7 -11 5 -7 -3 -12 -14 -10 -26 2 -11 -2 -23 -8 -27 -5 -3 -10 1
-10 9 0 21 -10 20 -26 -1 -9 -14 -16 -15 -24 -6 -9 8 -7 16 8 31 l20 20 -20
19 c-11 10 -22 17 -24 16 -13 -9 -15 -1 -3 13 12 14 14 14 25 0 11 -15 12 -15
18 -1 3 10 2 14 -5 10 -6 -4 -13 2 -16 14 -3 11 -14 23 -24 26 -11 4 -27 17
-35 31 -9 13 -20 21 -26 18 -5 -3 -16 2 -23 12 -12 16 -14 16 -15 4z m100 -85
c7 -8 11 -15 9 -16 -38 -7 -49 -7 -55 2 -4 6 0 15 7 20 19 12 25 11 39 -6z
m-44 -26 c3 -6 0 -15 -7 -20 -21 -13 -25 -11 -26 11 -2 21 21 28 33 9z m-96
-160 c0 -31 -17 -39 -26 -14 -4 8 -10 13 -14 10 -9 -5 -21 20 -14 28 3 2 16 5
29 5 21 0 25 -5 25 -29z"/>
<path d="M502 953 c-17 -18 -42 -89 -42 -120 0 -18 4 -24 15 -19 10 4 15 -1
15 -15 0 -11 5 -17 10 -14 6 3 10 15 10 26 0 10 -4 19 -10 19 -19 0 -10 45 14
65 33 27 42 61 18 67 -9 3 -23 -1 -30 -9z"/>
<path d="M2033 944 c-7 -7 -13 -22 -13 -34 0 -11 -6 -20 -12 -21 -7 0 -3 -5
10 -11 25 -12 44 -2 22 12 -11 7 -12 13 -2 36 15 31 12 38 -5 18z"/>
<path d="M570 930 c0 -11 -6 -20 -14 -20 -18 0 -27 -25 -14 -38 8 -8 8 -22 0
-50 -15 -48 -15 -55 -2 -47 6 3 10 17 10 31 0 20 4 24 18 20 13 -4 18 0 19 15
1 12 11 30 23 41 16 15 18 23 10 39 -15 27 -29 15 -36 -32 -4 -21 -11 -39 -16
-39 -6 0 -7 8 -3 18 11 27 18 82 11 82 -3 0 -6 -9 -6 -20z"/>
<path d="M1438 945 c-4 -4 -4 -13 -1 -21 3 -8 -1 -14 -11 -14 -25 0 -79 -37
-66 -45 8 -5 8 -11 -1 -21 -10 -12 -14 -12 -20 -2 -7 10 -9 10 -9 -2 0 -8 10
-21 21 -29 19 -11 21 -11 16 2 -3 9 1 21 9 28 8 7 12 19 9 27 -4 10 0 12 11 8
8 -3 21 -6 28 -6 15 0 19 -40 3 -40 -7 0 -21 -7 -31 -15 -16 -12 -18 -19 -8
-40 6 -14 18 -25 27 -25 17 0 20 -16 5 -25 -17 -10 -11 -35 8 -35 16 -1 16 -2
-2 -15 -10 -7 -16 -20 -13 -27 4 -10 6 -10 6 0 1 6 6 12 11 12 12 0 13 -37 1
-44 -4 -3 -7 -17 -5 -32 2 -26 14 -47 14 -26 0 7 10 22 22 34 16 16 17 20 5
15 -11 -4 -17 -1 -17 9 0 8 7 17 15 20 8 4 12 10 9 15 -3 5 -10 7 -15 4 -5 -4
-9 3 -9 14 0 12 5 21 10 21 6 0 10 5 10 11 0 8 -5 8 -15 -1 -13 -11 -15 -8
-15 13 0 14 5 27 11 29 7 2 7 12 1 29 -11 29 -1 55 17 44 8 -4 10 -18 6 -36
-4 -16 -2 -29 3 -29 13 0 22 -49 11 -56 -18 -11 -9 -25 10 -15 14 8 20 7 25
-4 4 -10 -1 -15 -14 -15 -14 0 -20 -7 -20 -21 0 -19 1 -19 16 -5 21 22 27 20
18 -6 -6 -21 -5 -21 10 -9 9 8 15 20 12 28 -3 7 1 13 9 13 8 0 15 5 15 11 0 6
-7 9 -14 6 -9 -4 -17 2 -21 14 -4 10 -13 19 -21 19 -18 0 -18 11 2 36 8 10 12
12 9 4 -4 -8 7 0 25 18 30 31 31 36 19 58 -11 21 -11 27 1 34 8 6 10 10 5 10
-7 0 -9 15 -7 35 3 22 0 35 -7 35 -8 0 -10 -14 -7 -40 2 -23 0 -38 -5 -34 -5
3 -7 10 -3 15 3 6 -3 13 -14 16 -11 2 -23 15 -27 26 -6 21 -7 21 -17 -5 -6
-19 -17 -28 -31 -28 -13 0 -17 3 -11 8 6 4 8 17 5 30 -4 13 -9 21 -13 17z m97
-77 c4 -13 9 -30 9 -38 1 -8 8 -14 16 -12 9 2 5 -7 -9 -22 -28 -30 -54 -34
-49 -8 2 9 12 16 22 16 15 -2 16 0 3 15 -20 22 -28 71 -12 71 7 0 16 -10 20
-22z m-61 6 c18 -7 21 -30 5 -40 -12 -7 -29 12 -29 34 0 14 2 14 24 6z"/>
<path d="M2056 925 c-3 -10 -3 -21 1 -24 13 -10 14 -32 2 -47 -9 -11 -8 -14 2
-14 8 0 5 -6 -7 -15 -10 -8 -14 -15 -8 -15 19 0 34 24 34 54 0 24 3 27 10 16
8 -13 10 -12 10 3 0 9 -4 17 -8 17 -5 0 -13 10 -19 22 -9 20 -10 20 -17 3z"/>
<path d="M1296 888 c3 -10 1 -18 -5 -18 -6 0 -11 5 -11 10 0 6 -14 10 -31 10
-28 0 -29 -1 -14 -17 14 -14 18 -14 26 -2 7 12 9 12 9 0 0 -8 -7 -22 -14 -30
-17 -19 -5 -48 14 -36 9 6 9 9 -1 16 -10 6 -8 9 9 9 16 0 22 -6 23 -22 0 -13
3 -17 6 -10 2 6 9 10 14 6 17 -10 9 5 -12 25 -22 21 -18 44 6 34 17 -6 21 12
5 22 -6 4 -8 10 -6 14 3 4 -1 8 -10 8 -9 0 -12 -7 -8 -19z"/>
<path d="M1179 872 c-15 -17 -15 -20 4 -31 13 -9 23 -9 30 -2 7 7 5 12 -7 17
-13 5 -14 9 -5 20 6 8 7 14 2 14 -5 0 -16 -8 -24 -18z"/>
<path d="M2404 790 c9 -61 30 -81 23 -21 -3 24 -11 49 -17 55 -10 8 -11 1 -6
-34z"/>
<path d="M1137 800 c-3 -13 0 -20 9 -20 8 0 14 -6 14 -12 1 -9 5 -8 13 3 7 8
20 18 30 22 18 7 15 27 -4 27 -6 0 -7 -4 -4 -10 8 -13 -11 -13 -35 0 -14 7
-19 5 -23 -10z"/>
<path d="M575 802 c-6 -4 -19 -33 -29 -66 -16 -53 -16 -60 -2 -74 15 -15 16
-15 16 0 0 9 6 28 14 43 8 15 12 35 9 44 -4 11 -1 10 10 -4 15 -20 16 -19 32
15 l16 35 -6 -37 c-6 -37 6 -51 21 -27 4 8 9 7 15 -2 5 -9 10 -4 15 16 5 22 3
31 -12 42 -23 16 -80 13 -77 -4 2 -7 -4 -10 -12 -6 -12 4 -13 9 -4 19 12 15
10 18 -6 6z"/>
<path d="M1264 748 c4 -30 3 -39 -4 -28 -9 13 -10 13 -10 0 0 -8 4 -21 9 -29
16 -24 33 22 21 55 -12 31 -6 42 13 25 8 -6 12 -22 10 -35 -3 -13 1 -27 8 -31
8 -6 10 -4 4 4 -4 8 1 20 14 32 12 11 18 26 14 35 -4 11 -8 12 -13 4 -6 -9
-13 -9 -28 -1 -38 20 -45 14 -38 -31z"/>
<path d="M1110 771 c0 -6 5 -11 10 -11 6 0 10 -13 10 -30 0 -16 -5 -30 -10
-30 -24 0 -37 -24 -28 -51 7 -20 14 -25 32 -22 16 3 28 -2 39 -17 11 -15 16
-18 20 -8 4 8 8 5 12 -9 4 -13 14 -23 22 -23 12 0 12 2 -1 16 -9 8 -16 24 -16
35 0 10 -4 19 -10 19 -5 0 -10 -4 -10 -10 0 -5 -4 -10 -8 -10 -5 0 -9 7 -9 15
0 8 5 15 11 15 6 0 4 5 -4 10 -10 6 -20 4 -31 -6 -18 -16 -39 -19 -39 -4 0 6
8 10 18 10 14 0 15 2 2 10 -13 8 -12 10 3 10 9 0 17 6 17 13 0 9 2 9 9 -1 6
-10 10 -9 14 7 3 14 10 19 21 15 18 -7 22 -24 5 -24 -6 0 -4 -7 5 -15 18 -18
29 -19 23 -2 -2 6 2 27 9 45 7 17 9 32 3 32 -5 0 -9 -7 -9 -15 0 -8 -5 -15
-11 -15 -6 0 -9 6 -6 14 7 17 -18 15 -35 -2 -17 -17 -28 -15 -28 7 0 10 -7 24
-15 31 -10 9 -15 9 -15 1z"/>
<path d="M1360 720 c0 -24 -4 -30 -22 -30 -31 0 -53 -16 -53 -37 0 -10 -6 -17
-12 -15 -7 1 -13 -8 -13 -20 -1 -22 -1 -22 -15 -4 -8 11 -17 17 -20 14 -3 -3
1 -11 10 -18 8 -7 15 -18 16 -24 0 -6 12 -21 27 -33 l28 -21 2 30 c3 33 35 74
51 63 6 -3 11 -1 11 4 0 6 5 11 10 11 19 0 10 -21 -12 -30 -20 -7 -19 -8 9 -7
35 2 42 17 19 39 -8 8 -12 31 -11 55 2 28 -2 44 -11 47 -10 4 -14 -3 -14 -24z
m-10 -49 c0 -4 -12 -20 -26 -35 -15 -14 -24 -26 -20 -26 4 0 2 -9 -4 -20 -13
-24 -26 -26 -34 -4 -4 10 -2 13 6 8 8 -5 9 -2 5 9 -4 11 0 21 12 29 11 7 17
18 13 26 -3 10 -1 13 6 8 6 -3 13 -2 17 4 8 12 25 13 25 1z"/>
<path d="M2032 738 c-7 -7 -12 -22 -12 -34 0 -13 -5 -26 -11 -29 -6 -4 -8 -14
-4 -23 3 -8 2 -18 -3 -21 -14 -9 -24 -61 -12 -61 5 0 11 5 11 10 1 6 2 14 3
19 0 5 5 13 10 18 5 4 7 -6 4 -23 -3 -21 0 -30 7 -28 14 6 59 -42 51 -54 -3
-5 3 -17 14 -27 11 -10 20 -13 20 -7 0 6 -5 14 -11 17 -13 8 -6 30 9 31 7 1
13 2 15 4 13 10 51 3 62 -12 20 -29 28 -4 10 31 -8 16 -12 36 -9 44 8 21 -51
43 -84 31 -15 -5 -28 -16 -28 -24 -1 -8 -2 -21 -3 -29 -1 -11 -5 -11 -20 3
-12 11 -18 28 -16 49 1 18 -3 36 -9 40 -7 6 -6 7 4 4 8 -2 14 -9 13 -15 -2 -6
4 -9 11 -6 20 8 30 54 15 68 -9 8 -11 7 -6 -5 3 -9 2 -21 -3 -28 -5 -9 -9 -5
-12 13 -3 16 0 27 9 30 8 3 11 10 8 16 -8 13 -18 13 -33 -2z"/>
<path d="M1808 696 c3 -6 7 -18 7 -26 0 -8 11 -17 24 -18 15 -2 21 0 17 7 -4
6 -15 11 -24 11 -16 1 -16 2 1 14 16 13 16 14 -7 18 -17 4 -23 1 -18 -6z"/>
<path d="M583 671 c-6 -18 -7 -33 -2 -37 12 -7 21 19 17 47 -3 19 -4 18 -15
-10z"/>
<path d="M1873 660 c-1 -11 2 -22 8 -25 16 -11 10 -25 -8 -18 -16 6 -16 5 -4
-10 14 -18 46 -24 36 -6 -4 5 3 19 16 30 18 15 19 19 6 19 -10 0 -17 -4 -17
-10 0 -5 -5 -10 -11 -10 -5 0 -9 10 -7 22 2 11 -2 23 -7 25 -6 2 -11 -6 -12
-17z"/>
<path d="M1962 653 c3 -17 -23 -64 -32 -58 -5 3 -10 1 -10 -5 0 -7 8 -9 20 -5
11 4 20 2 20 -4 0 -6 -4 -11 -10 -11 -5 0 -10 -5 -10 -11 0 -8 5 -8 15 1 9 7
13 21 9 35 -3 13 -1 26 5 29 14 9 14 36 1 36 -5 0 -9 -3 -8 -7z"/>
<path d="M1794 636 c-14 -15 9 -52 25 -41 6 3 11 1 11 -5 0 -6 4 -9 8 -6 4 2
18 -3 31 -13 20 -16 22 -20 10 -39 -15 -24 -60 -48 -56 -31 3 14 -31 21 -39 8
-3 -5 0 -9 5 -9 6 0 21 -10 33 -22 l22 -22 6 24 c4 17 8 21 14 12 9 -15 36
-16 36 -1 0 6 -7 9 -15 5 -12 -4 -13 -2 -2 14 7 12 18 18 29 15 9 -3 19 -1 23
4 3 6 0 8 -8 5 -8 -3 -18 -1 -22 5 -3 6 -1 11 4 11 6 0 11 5 11 11 0 6 -6 9
-14 6 -8 -3 -17 1 -20 10 -4 9 -9 13 -13 9 -3 -3 -12 3 -20 13 -8 12 -20 17
-33 14 -21 -6 -29 12 -8 19 7 3 8 7 3 10 -6 3 -15 0 -21 -6z"/>
<path d="M1076 586 c2 -11 -2 -26 -8 -33 -18 -22 -3 -25 20 -4 26 21 28 31 8
31 -8 0 -16 6 -19 13 -2 6 -3 3 -1 -7z"/>
<path d="M1531 593 c-14 -11 -12 -13 16 -11 18 1 35 8 37 14 6 16 -31 14 -53
-3z"/>
<path d="M1157 561 c-3 -12 -1 -24 4 -27 5 -3 9 0 9 7 0 8 7 6 19 -5 17 -16
19 -16 25 0 4 9 4 19 1 22 -3 3 -5 -1 -5 -8 0 -9 -5 -7 -15 6 -8 10 -15 15
-15 9 0 -5 -4 -4 -9 3 -6 10 -10 9 -14 -7z"/>
<path d="M1123 558 c0 -7 -4 -21 -8 -30 -4 -10 -3 -18 3 -18 6 0 15 14 21 30
8 23 7 30 -3 30 -7 0 -13 -6 -13 -12z"/>
<path d="M1557 556 c-2 -6 -1 -20 3 -30 5 -15 9 -16 15 -7 4 8 2 17 -5 21 -9
6 -6 9 11 12 24 3 24 4 2 10 -12 3 -24 1 -26 -6z"/>
<path d="M1967 553 c-4 -3 -7 -16 -6 -27 0 -12 3 -15 6 -8 2 6 9 10 14 6 5 -3
9 4 9 15 0 21 -11 27 -23 14z"/>
<path d="M2005 529 c-4 -12 -3 -24 3 -28 6 -3 12 -24 14 -46 2 -22 8 -38 13
-35 11 5 10 10 -1 78 -8 49 -20 62 -29 31z"/>
<path d="M1240 520 c0 -5 7 -10 16 -10 8 0 12 -4 9 -10 -3 -5 0 -7 9 -4 8 3
24 0 35 -6 27 -14 46 -4 30 16 -9 11 -14 12 -20 3 -5 -9 -11 -8 -24 4 -18 19
-55 23 -55 7z"/>
<path d="M1475 498 c3 -16 2 -28 -2 -29 -5 0 -16 -2 -25 -4 -10 -2 -18 1 -18
6 0 6 -5 7 -10 4 -15 -9 -1 -27 16 -21 16 6 15 8 18 -57 1 -27 -2 -51 -6 -53
-4 -3 -8 -10 -8 -15 0 -6 5 -7 10 -4 6 3 10 -1 10 -9 0 -8 4 -17 9 -20 6 -4 7
29 4 79 l-5 85 43 -4 c24 -3 46 -5 48 -5 14 -3 -26 -31 -51 -36 -24 -6 -29
-11 -24 -28 3 -12 6 -26 7 -32 1 -5 5 4 9 20 l8 30 1 -27 c1 -32 21 -39 21 -7
0 13 4 18 13 13 9 -6 9 -5 0 8 -7 8 -10 18 -6 21 13 14 23 6 23 -17 0 -13 5
-26 11 -28 9 -3 9 -10 -1 -27 -6 -13 -7 -21 -2 -17 6 3 15 19 20 36 9 24 8 30
-2 30 -8 0 -16 8 -19 19 -3 14 0 17 14 14 10 -3 17 -9 14 -13 -3 -4 2 -10 10
-14 23 -9 18 27 -7 54 -13 14 -23 28 -23 31 0 4 -4 11 -9 16 -5 4 -6 3 -3 -3
5 -8 -2 -11 -18 -10 -14 0 -25 4 -25 8 0 3 -8 5 -17 4 -10 -2 -21 4 -26 13 -4
10 -5 5 -2 -11z"/>
<path d="M1010 500 c0 -10 58 -50 72 -50 4 0 5 7 2 15 -4 9 -11 15 -18 14 -25
-3 -36 2 -36 16 0 8 -4 15 -10 15 -5 0 -10 -5 -10 -10z"/>
<path d="M1915 500 c-3 -5 3 -10 15 -10 13 0 20 -5 17 -12 -2 -8 -17 -12 -37
-10 -21 2 -30 0 -25 -7 3 -6 11 -9 16 -6 5 4 16 0 24 -8 12 -13 12 -18 -5 -37
-11 -13 -20 -19 -20 -14 -1 5 -7 -6 -16 -25 -8 -19 -17 -31 -21 -28 -3 4 -12
2 -20 -4 -7 -7 -23 -13 -36 -14 -37 -4 -38 -5 -32 -15 3 -6 1 -10 -4 -10 -6 0
-11 -7 -11 -15 0 -21 -20 -19 -20 3 -1 14 -3 12 -13 -6 -7 -12 -16 -20 -20
-16 -4 4 -17 -1 -29 -12 -12 -10 -18 -14 -14 -7 4 7 -2 17 -14 23 -17 9 -20 8
-20 -9 0 -10 -7 -22 -16 -25 -24 -9 -26 -8 -13 17 11 19 10 20 -3 10 -8 -7
-18 -10 -21 -6 -4 3 -7 -2 -7 -12 0 -18 -1 -18 -15 1 -14 18 -15 18 -9 0 6
-15 4 -17 -12 -9 -10 6 -25 8 -31 6 -7 -3 -13 0 -13 5 0 5 -9 12 -20 15 -11 3
-20 0 -20 -6 0 -6 -7 -2 -16 9 -8 10 -13 13 -9 7 8 -17 -7 -17 -24 0 -11 10
-12 8 -7 -9 6 -19 3 -21 -19 -16 -14 2 -25 11 -25 18 0 8 3 13 8 13 18 -3 26
2 14 10 -9 5 -22 0 -38 -16 -22 -22 -26 -23 -40 -8 -12 12 -19 13 -30 4 -8 -6
-14 -7 -14 -2 0 5 10 17 22 27 21 18 22 18 35 0 7 -10 13 -13 13 -7 0 7 -5 15
-11 18 -7 5 -5 15 5 30 14 21 14 23 -4 18 -11 -3 -16 -11 -13 -19 3 -8 0 -14
-7 -14 -7 0 -18 -7 -25 -17 -13 -17 -40 -9 -29 9 4 7 2 8 -4 4 -9 -5 -9 -13
-1 -29 11 -21 10 -20 -16 3 -16 14 -25 19 -21 12 4 -6 3 -12 -2 -12 -5 0 -12
10 -15 22 -5 18 -8 19 -21 9 -13 -11 -17 -10 -22 2 -3 9 -3 21 1 27 3 5 -1 10
-10 10 -11 0 -15 -5 -11 -15 3 -9 0 -15 -9 -15 -8 0 -15 -5 -15 -11 0 -6 6 -9
12 -7 7 3 24 -6 38 -19 14 -13 36 -26 50 -29 14 -3 35 -10 48 -15 13 -5 33 -9
46 -9 12 0 32 -11 44 -25 13 -14 27 -23 32 -20 6 3 10 1 10 -6 0 -7 3 -9 7 -6
3 4 12 2 20 -4 10 -9 13 -8 13 5 0 9 -7 16 -15 16 -8 0 -15 5 -15 10 0 10 15
14 34 11 5 -1 12 3 16 8 4 8 14 7 32 -1 22 -11 26 -18 22 -43 -3 -28 -3 -28 5
-5 6 17 9 20 10 8 1 -22 21 -24 21 -3 0 8 -4 15 -10 15 -5 0 -10 5 -10 10 0 6
9 10 20 10 17 0 19 -4 14 -27 -6 -24 -5 -26 8 -16 8 7 18 10 21 6 4 -3 7 -2 7
3 0 6 28 18 63 27 34 10 76 22 93 27 17 6 41 10 53 10 13 0 21 5 19 12 -2 6
17 23 43 37 27 14 62 45 79 69 25 35 34 41 45 32 12 -10 13 -6 8 24 -5 31 -3
35 11 30 12 -5 16 0 16 20 0 30 -14 34 -29 9 -9 -16 -10 -16 -11 -2 0 9 -7 20
-16 23 -21 8 -22 8 -29 -4z"/>
<path d="M1121 481 c-13 -24 -4 -32 25 -25 14 4 24 2 24 -5 0 -6 7 -8 15 -5 8
4 15 1 15 -6 0 -10 3 -10 15 0 10 8 15 9 15 2 0 -6 7 -9 16 -5 14 5 15 3 5
-15 -8 -16 -9 -28 -1 -42 15 -29 20 -25 14 10 -4 19 -1 36 7 47 10 11 10 14 2
9 -8 -4 -13 -2 -13 4 0 6 -4 9 -8 6 -15 -9 -117 20 -114 32 3 18 -6 14 -17 -7z"/>
<path d="M1366 475 c-15 -8 -33 -12 -39 -8 -6 3 -7 1 -3 -6 4 -6 3 -17 -3 -24
-14 -17 2 -39 22 -31 9 3 14 10 11 15 -3 5 0 9 5 9 6 0 11 -7 11 -15 0 -8 9
-15 20 -15 14 0 18 -5 13 -17 -3 -10 -3 -15 2 -11 4 4 14 0 21 -10 12 -15 13
-14 14 14 0 26 -5 33 -27 39 -37 9 -53 23 -46 41 4 12 7 12 18 -2 14 -20 25
-7 16 18 -6 16 -9 16 -35 3z"/>
<path d="M1654 443 c18 -22 18 -41 1 -88 -7 -20 -6 -20 9 -1 9 11 16 30 16 42
0 17 6 22 28 22 33 0 43 -14 31 -45 -6 -16 -5 -22 1 -18 6 3 10 13 10 21 0 8
7 14 15 14 18 0 19 -5 3 -33 -10 -20 -10 -21 5 -8 10 7 17 20 17 27 0 8 7 14
15 14 8 0 15 -8 15 -17 1 -16 2 -15 12 2 6 11 16 23 22 27 6 4 -6 5 -26 1 -27
-4 -38 -2 -38 7 0 7 8 10 20 7 13 -3 20 0 20 9 0 8 7 14 15 14 8 0 15 -4 15
-9 0 -11 49 -21 55 -11 3 4 -5 10 -18 14 -12 3 -22 5 -22 5 0 0 -12 4 -27 10
-23 9 -28 8 -28 -4 0 -8 -9 -15 -21 -15 -11 0 -17 5 -14 10 3 6 1 10 -4 10 -6
0 -11 -4 -11 -10 0 -14 -96 -6 -117 11 -17 13 -17 12 1 -8z"/>
<path d="M1210 406 c0 -15 -12 -21 -33 -17 -4 1 -3 -9 4 -21 17 -33 23 -36 16
-10 -6 24 10 31 19 7 4 -8 11 -15 16 -15 7 0 7 4 1 13 -6 6 -9 20 -8 29 2 10
-1 20 -6 24 -5 3 -9 -2 -9 -10z"/>
<path d="M1689 365 c-14 -30 -14 -35 -2 -35 8 0 12 4 9 9 -4 5 -2 11 3 13 11
4 25 48 14 48 -4 -1 -15 -16 -24 -35z"/>
<path d="M1426 203 c-11 -11 -7 -34 5 -27 6 3 15 1 19 -6 5 -8 9 -8 13 4 6 16
-25 41 -37 29z"/>
</g>
</svg>
